<svg width="56" height="56" viewBox="0 0 56 56" fill="none" xmlns="http://www.w3.org/2000/svg">
<path d="M28.8627 5.01671L49.8627 13.4167C50.6793 13.7433 51.3327 14.7233 51.3327 15.5866V23.3333C51.3327 24.6167 50.2827 25.6667 48.9994 25.6667H6.99935C5.71602 25.6667 4.66602 24.6167 4.66602 23.3333V15.5866C4.66602 14.7233 5.31936 13.7433 6.13603 13.4167L27.136 5.01671C27.6027 4.83004 28.396 4.83004 28.8627 5.01671Z" stroke="#007AFD" stroke-width="3" stroke-miterlimit="10" stroke-linecap="round" stroke-linejoin="round"/>
<path d="M51.3327 51.3333H4.66602V44.3333C4.66602 43.05 5.71602 42 6.99935 42H48.9994C50.2827 42 51.3327 43.05 51.3327 44.3333V51.3333Z" stroke="#007AFD" stroke-width="3" stroke-miterlimit="10" stroke-linecap="round" stroke-linejoin="round"/>
<path d="M9.33398 42V25.6667" stroke="#007AFD" stroke-width="3" stroke-miterlimit="10" stroke-linecap="round" stroke-linejoin="round"/>
<path d="M18.666 42V25.6667" stroke="#007AFD" stroke-width="3" stroke-miterlimit="10" stroke-linecap="round" stroke-linejoin="round"/>
<path d="M28 42V25.6667" stroke="#007AFD" stroke-width="3" stroke-miterlimit="10" stroke-linecap="round" stroke-linejoin="round"/>
<path d="M37.334 42V25.6667" stroke="#007AFD" stroke-width="3" stroke-miterlimit="10" stroke-linecap="round" stroke-linejoin="round"/>
<path d="M46.666 42V25.6667" stroke="#007AFD" stroke-width="3" stroke-miterlimit="10" stroke-linecap="round" stroke-linejoin="round"/>
<path d="M2.33398 51.3333H53.6673" stroke="#007AFD" stroke-width="3" stroke-miterlimit="10" stroke-linecap="round" stroke-linejoin="round"/>
<path d="M28 19.8334C29.933 19.8334 31.5 18.2664 31.5 16.3334C31.5 14.4004 29.933 12.8334 28 12.8334C26.067 12.8334 24.5 14.4004 24.5 16.3334C24.5 18.2664 26.067 19.8334 28 19.8334Z" stroke="#007AFD" stroke-width="3" stroke-miterlimit="10" stroke-linecap="round" stroke-linejoin="round"/>
</svg>
