<svg width="56" height="56" viewBox="0 0 56 56" fill="none" xmlns="http://www.w3.org/2000/svg">
<path d="M18.668 26.6C18.668 28.3967 20.068 29.8667 21.7713 29.8667H25.2713C26.7646 29.8667 27.978 28.5834 27.978 27.02C27.978 25.3167 27.2313 24.71 26.1346 24.3134L20.5346 22.3534C19.4146 21.9567 18.668 21.35 18.668 19.6467C18.668 18.0834 19.8813 16.8 21.3746 16.8H24.8746C26.6013 16.8234 28.0013 18.2701 28.0013 20.0667" stroke="#007AFD" stroke-width="3" stroke-linecap="round" stroke-linejoin="round"/>
<path d="M37 41.25C37 42.2125 37.75 43 38.6625 43H40.5375C41.3375 43 41.9875 42.3125 41.9875 41.475C41.9875 40.5625 41.5875 40.2375 41 40.025L38 38.975C37.4 38.7625 37 38.4375 37 37.525C37 36.6875 37.65 36 38.45 36H40.325C41.25 36.0125 42 36.7875 42 37.75" stroke="#007AFD" stroke-width="2" stroke-linecap="round" stroke-linejoin="round"/>
<path d="M23.332 29.9833V31.7099" stroke="#007AFD" stroke-width="3" stroke-linecap="round" stroke-linejoin="round"/>
<path d="M40 44V44.5" stroke="#007AFD" stroke-linecap="round" stroke-linejoin="round"/>
<path d="M23.334 14.9566V16.7766" stroke="#007AFD" stroke-width="3" stroke-linecap="round" stroke-linejoin="round"/>
<path d="M23.3093 41.9533C33.6058 41.9533 41.9527 33.6064 41.9527 23.31C41.9527 13.0136 33.6058 4.66667 23.3093 4.66667C13.0129 4.66667 4.66602 13.0136 4.66602 23.31C4.66602 33.6064 13.0129 41.9533 23.3093 41.9533Z" stroke="#007AFD" stroke-width="3" stroke-linecap="round" stroke-linejoin="round"/>
<path d="M30.2871 46.3867C32.3871 49.35 35.8171 51.2867 39.7371 51.2867C46.1071 51.2867 51.2871 46.1067 51.2871 39.7367C51.2871 35.8633 49.3738 32.4333 46.4571 30.3333" stroke="#007AFD" stroke-width="3" stroke-linecap="round" stroke-linejoin="round"/>
</svg>
