<svg width="22" height="35" viewBox="0 0 22 35" fill="none" xmlns="http://www.w3.org/2000/svg">
<path d="M10.6541 0.111999C13.8221 0.111999 16.3821 1.008 18.3341 2.8C20.2861 4.592 21.2621 6.992 21.2621 10C21.2621 13.36 20.2221 15.856 18.1421 17.488C16.0621 19.088 13.2461 19.888 9.69406 19.888L9.55006 24.448H5.75806L5.56606 16.864H6.95806C10.1261 16.864 12.6061 16.384 14.3981 15.424C16.1901 14.464 17.0861 12.656 17.0861 10C17.0861 8.08 16.5101 6.56 15.3581 5.44C14.2061 4.32 12.6541 3.76 10.7021 3.76C8.71806 3.76 7.15006 4.304 5.99806 5.392C4.87806 6.448 4.31806 7.904 4.31806 9.76H0.190063C0.190063 7.84 0.622063 6.16 1.48606 4.72C2.35006 3.248 3.56606 2.112 5.13406 1.312C6.73406 0.511998 8.57406 0.111999 10.6541 0.111999ZM7.63006 34.288C6.79806 34.288 6.09406 34 5.51806 33.424C4.94206 32.848 4.65406 32.144 4.65406 31.312C4.65406 30.48 4.94206 29.776 5.51806 29.2C6.09406 28.624 6.79806 28.336 7.63006 28.336C8.43006 28.336 9.10206 28.624 9.64606 29.2C10.2221 29.776 10.5101 30.48 10.5101 31.312C10.5101 32.144 10.2221 32.848 9.64606 33.424C9.10206 34 8.43006 34.288 7.63006 34.288Z" fill="#007AFD"/>
</svg>
