<svg width="56" height="56" viewBox="0 0 56 56" fill="none" xmlns="http://www.w3.org/2000/svg">
<path d="M23.5913 26.0168H17.408C15.938 26.0168 14.748 27.2067 14.748 28.6767V40.6233H23.5913V26.0168V26.0168Z" stroke="#007AFD" stroke-width="3" stroke-miterlimit="10" stroke-linecap="round" stroke-linejoin="round"/>
<path d="M29.7789 15.4H26.2322C24.7622 15.4 23.5723 16.5901 23.5723 18.0601V40.6001H32.4156V18.0601C32.4156 16.5901 31.2489 15.4 29.7789 15.4Z" stroke="#007AFD" stroke-width="3" stroke-miterlimit="10" stroke-linecap="round" stroke-linejoin="round"/>
<path d="M38.615 29.9834H32.4316V40.6002H41.275V32.6434C41.2517 31.1734 40.0616 29.9834 38.615 29.9834Z" stroke="#007AFD" stroke-width="3" stroke-miterlimit="10" stroke-linecap="round" stroke-linejoin="round"/>
<path d="M21.0013 51.3337H35.0013C46.668 51.3337 51.3346 46.667 51.3346 35.0003V21.0003C51.3346 9.33366 46.668 4.66699 35.0013 4.66699H21.0013C9.33464 4.66699 4.66797 9.33366 4.66797 21.0003V35.0003C4.66797 46.667 9.33464 51.3337 21.0013 51.3337Z" stroke="#007AFD" stroke-width="3" stroke-linecap="round" stroke-linejoin="round"/>
</svg>
