<svg width="30" height="28" viewBox="0 0 30 28" fill="none" xmlns="http://www.w3.org/2000/svg">
<rect x="0.5" y="0.5" width="28.9509" height="27" rx="7.5" fill="white"/>
<rect x="0.5" y="0.5" width="28.9509" height="27" rx="7.5" stroke="#A3A3A3"/>
<path d="M18.5 10.99C16.835 10.825 15.16 10.74 13.49 10.74C12.5 10.74 11.51 10.79 10.52 10.89L9.5 10.99" stroke="#A3A3A3" stroke-linecap="round" stroke-linejoin="round"/>
<path d="M12.252 10.4852L12.362 9.83024C12.442 9.35524 12.502 9.00024 13.347 9.00024H14.657C15.502 9.00024 15.567 9.37524 15.642 9.83524L15.752 10.4852" stroke="#A3A3A3" stroke-linecap="round" stroke-linejoin="round"/>
<path d="M17.4262 12.5701L17.1012 17.6051C17.0462 18.3901 17.0012 19.0001 15.6062 19.0001H12.3962C11.0012 19.0001 10.9562 18.3901 10.9012 17.6051L10.5762 12.5701" stroke="#A3A3A3" stroke-linecap="round" stroke-linejoin="round"/>
<path d="M13.166 16.25H14.831" stroke="#A3A3A3" stroke-linecap="round" stroke-linejoin="round"/>
<path d="M12.748 14.2502H15.248" stroke="#A3A3A3" stroke-linecap="round" stroke-linejoin="round"/>
</svg>
